<svg id="Capa_1" data-name="Capa 1" xmlns="http://www.w3.org/2000/svg" viewBox="0 0 701.38 124.27"><defs><style>.cls-1{fill:#fd0000;}</style></defs><path class="cls-1" d="M2.24,41.48H55.79a.92.92,0,0,1,.73.34,1.07,1.07,0,0,1,.29.76v.14l-1.22,8.9a1,1,0,0,1-1.08,1H39.88l-5,36.23a1,1,0,0,1-.33.69,1,1,0,0,1-.69.27H12.76a.94.94,0,0,1-.74-.34,1.13,1.13,0,0,1-.29-.76l4.91-36.09H1a.88.88,0,0,1-.67-.34A1.07,1.07,0,0,1,0,51.48v-.14l1.23-8.9C1.33,41.8,1.67,41.48,2.24,41.48Z"/><path class="cls-1" d="M55.59,84.67l5.75-42.23a1,1,0,0,1,.33-.69,1,1,0,0,1,.69-.27H120a3.64,3.64,0,0,1,2.85,1.34A4.56,4.56,0,0,1,124,46a1.64,1.64,0,0,1-.08.55l-5.74,42.23a1,1,0,0,1-1,1H59.48a3.65,3.65,0,0,1-2.84-1.34,4.57,4.57,0,0,1-1.13-3.21A1.89,1.89,0,0,1,55.59,84.67ZM83.05,53.55,79.76,77.42v.14a1.07,1.07,0,0,0,.29.76.87.87,0,0,0,.67.34H95.41a1,1,0,0,0,1-1l3.22-23.87a.26.26,0,0,0,.07-.14,1.12,1.12,0,0,0-.29-.76,1,1,0,0,0-.74-.35H84.07a1,1,0,0,0-.69.28A.91.91,0,0,0,83.05,53.55Z"/><path class="cls-1" d="M180.65,41.68l15.25-.2a1.67,1.67,0,0,1,1.35.82,1.32,1.32,0,0,1,.16.76,2.69,2.69,0,0,1-.21.9L171.74,77l-1.61,11.8a1,1,0,0,1-1.08,1H148.17a.89.89,0,0,1-.71-.24,1.13,1.13,0,0,1-.27-.52l0-.48,1.45-10.76-23.78-33.6a2.19,2.19,0,0,1-.29-1,2.77,2.77,0,0,1,.14-.62,1.37,1.37,0,0,1,1.33-.9h25.53l13,18.77,15.16-18.14A1.07,1.07,0,0,1,180.65,41.68Z"/><path class="cls-1" d="M261.83,46.58a2,2,0,0,0,.08-.55,4.52,4.52,0,0,0-1.13-3.21,3.62,3.62,0,0,0-2.84-1.34H200.3a1,1,0,0,0-.68.27.88.88,0,0,0-.33.69l-5.75,42.23a1.89,1.89,0,0,0-.08.55,4.52,4.52,0,0,0,1.13,3.21,3.65,3.65,0,0,0,2.84,1.34h46.11l17.52-37.53ZM237.6,53.83,234.37,77.7c-.1.64-.44,1-1,1H218.67a.87.87,0,0,1-.67-.34,1,1,0,0,1-.29-.76v-.14L221,53.55a.85.85,0,0,1,.33-.69,1,1,0,0,1,.68-.28h14.63a.93.93,0,0,1,.73.35,1.07,1.07,0,0,1,.29.76A.24.24,0,0,1,237.6,53.83Z"/><polygon points="325.16 18.24 316.47 18.24 332.9 0 341.59 0 325.16 18.24"/><path d="M396.09,108.66h11.54l-5.56,11.85-3.75.67h8.81l1.75-3.71h5.57l1.3,3.65v.06h0l-1.44,3.09H391.16l5.67-12.13,1.27,2.14-1-2.72Z"/><path d="M448.4,124.27H422.45l13.1-12,1.38,2.35-1-2.72-1.15-3.24h8Zm-17.81-3.09h8.66l-1.28-3.6-3.12,2.85Z"/><path d="M485.47,108.66h23.75l-1.44,3.09H495.57l-1.65,3.5h9.48L502,118.33h-9.48l-2.79,5.94h-9.15l5.67-12.13,1.27,2.14-1-2.72Z"/><path d="M516.75,108.66h11.53l-5.56,11.85-3.74.67h8.81l1.74-3.71h5.58l1.3,3.65,0,.06h0L535,124.27H511.81l5.68-12.13,1.26,2.14-1-2.72Z"/><path d="M549,108.66h21.21l1.09,3.07v0l.75,2.14-3.41,7.29h0l-1.44,3.09H546.56l-1.09-3.09,4.25-9,1.25,2.14-1-2.72Zm11,12.52,4.42-9.43h-5.38l-4.12,8.76-3.75.67Z"/><path d="M581.79,108.66h23.75l.77,2.14-3.54,7.53h-2.34l2.1,5.94h-8l-1.89-5.33-.21-.61H588.8L586,124.27h-9.15l5.67-12.13,1.27,2.14-1-2.72Zm14.15,5.92,1.33-2.83h-5.38l-1.65,3.5h8.83Z"/><path d="M616.16,108.66H627.7l-7.33,15.61h-9.14l5.67-12.13,1.26,2.14-1-2.72Z"/><path d="M636.15,108.66h21.22l1.09,3.07v0l.75,2.14-3.41,7.29h0l-1.44,3.09H631.22l5.67-12.13,1.27,2.14-1-2.72Zm11,12.52,4.44-9.43h-5.38l-4.12,8.76-3.75.67Z"/><path d="M688.85,124.27h-26l13.11-12,1.38,2.35-1-2.72-1.15-3.24h8ZM671,121.18h8.67l-1.28-3.6-3.13,2.85Z"/><path d="M265.37,31.13H367.05l-6.18,13.22H308.62l-7.07,15h40.64L336,72.56H295.37L291,81.9l-16.07,2.87h74.77L343.5,98H254.39L250,85.6,268.53,46l5.35,9.15-4.11-11.65Z"/><path d="M451.9,31.13,425.26,55.45,409.34,69.6,394.16,83.19l21.77-16.92L427.19,98H392.72l-3.43-9.62L378.85,98H343.7l37-33.85,6.38-5.73,15.24-13.6L380,62.2l-2-5.55h.07l-4.19-11.56-4.94-14H403.5l3.23,9.15,10.09-9.15Z"/><path d="M451,31.13h49.43L469.06,98h-39.2l24.3-52,5.43,9.15L455.4,43.52Z"/><path d="M500,31.13h99.07l4.67,13.13H557l15.31,3.33L548.7,98H509.43l25.19-53.73H504.76l-.34-.74Z"/><path d="M602.59,31.13h90.89l4.67,13.13v.09l3.23,9.16L686.76,84.77h.13L680.72,98H592.29l-4.67-13.22L605.82,46l5.35,9.15L607,43.52ZM650,84.77l18.95-40.42H645.84L628.2,81.9l-16.07,2.87Z"/></svg>